<svg viewBox="0 0 522.45 279.83" xmlns="http://www.w3.org/2000/svg"><path d="m278.39 218.05h70.5l-5.63-17.31h-41.08c9.55-16.52 42.33-20.42 42.33-48.02 0-17.28-12.17-28.97-31.55-28.97-13.66 0-28.12 5.72-34.96 25.1l17.68 6.3c3.04-9.49 9.13-14.73 17.31-14.73 3.19-.26 6.33.89 8.6 3.14s3.44 5.38 3.21 8.57c0 21.3-46.4 25.56-46.4 59.61v6.3zm135.61-94.33c-28.12 0-48.87 20.81-48.87 48.44s20.75 47.59 48.87 47.59 48.9-20.45 48.9-47.59-20.78-48.44-48.9-48.44zm0 77.87c-16.01 0-28.12-12.96-28.12-29.42 0-17.28 11.68-30.28 28.12-30.28s28.12 12.99 28.12 30.28-12.11 29.42-28.12 29.42zm-213.18 16.43h20.78l39.8-92.56h-19.9zm-64.59-94.3c-28.12 0-48.9 20.81-48.9 48.44s20.78 47.59 48.9 47.59 48.87-20.45 48.87-47.59-20.78-48.44-48.87-48.44zm0 77.87c-16.01 0-28.12-12.96-28.12-29.42 0-17.28 11.68-30.28 28.12-30.28s28.09 12.99 28.09 30.28-12.17 29.42-28.09 29.42zm-135.83 16.43h70.47l-5.6-17.28h-40.93c9.4-16.64 42.17-20.42 42.17-48.02 0-17.31-12.17-29-31.58-29-13.63 0-28.12 5.6-34.93 25.13l17.68 6.3c3.04-9.49 8.95-14.73 17.28-14.73 3.19-.27 6.33.87 8.6 3.12s3.46 5.37 3.23 8.56c0 21.3-46.4 25.59-46.4 59.61v6.3zm12.96-121.99c6.81 0 12.32-5.52 12.32-12.32s-5.52-12.32-12.32-12.32-12.32 5.52-12.32 12.32 5.52 12.32 12.32 12.32zm70.93-1.73h19.9v-92.57h-17.28l-31.58 39.37-31.6-39.37h-22.48l54.07 67.92 28.97-36.33zm89.55-94.3c-28.12 0-48.87 20.75-48.87 48.44s20.75 47.59 48.87 47.59 48.9-20.33 48.9-47.59-20.76-48.44-48.9-48.44zm0 77.87c-16.01 0-28.12-12.96-28.12-29.42 0-17.28 11.68-30.43 28.12-30.43s28.15 12.99 28.15 30.43c.28 7.66-2.55 15.12-7.86 20.66-5.3 5.54-12.62 8.7-20.29 8.76zm69.64 16.43h19.9v-58.39l45 58.39h17.74v-92.57h-19.9v58.39l-45-58.39h-17.74v92.56zm110.15 0h67.49l-5.63-17.28h-41.96v-20.78h29.85v-17.31h-29.85v-19.9h41.96l5.63-17.28h-67.49v92.56zm113.87 0h19.9v-34.17l35.05-58.4h-21.63l-23.37 40.23-23.34-40.23h-21.63l35.02 58.39v34.17zm-459.41 178.58-3.04 6.45h-5.05l14.3-29.06 14.36 29.06h-4.9l-3.04-6.45zm6.09-12.78-4.02 8.55h8.34zm24.07.97v18.26h-4.78v-29.06l19.5 18.74v-18.26h4.84v29.06l-19.57-18.74zm41.96 11.81-3.04 6.45h-5.02l14.3-29.06 14.36 29.06h-4.9l-3.19-6.45zm6.24-12.72-4.14 8.55h8.34zm17.95 12.17c2.45 1.98 5.5 3.05 8.64 3.04 3.19 0 5.14-1.37 5.14-3.53s-1.1-3.41-3.74-4.26l-3.47-1.19c-3.89-.73-6.67-4.17-6.57-8.12 0-5.05 4.02-8 9.77-8 2.35-.08 4.69.41 6.82 1.43v4.78c-2.08-1.15-4.41-1.76-6.79-1.76-3.04 0-5.08 1.16-5.08 3.29s1.13 3.04 3.74 4.02l3.04 1.06c4.13.65 7.09 4.35 6.82 8.52 0 5.29-4.05 8.22-10.04 8.22-2.96.12-5.89-.64-8.43-2.16 0 0 .15-5.32.15-5.32zm38.79-22.06c2.38-.05 4.74.4 6.94 1.31v4.81c-2.11-1.05-4.43-1.58-6.79-1.55-3.78-.21-7.36 1.69-9.32 4.94s-1.95 7.3 0 10.54 5.54 5.14 9.32 4.94c2.35.03 4.68-.5 6.79-1.55v4.72c-2.2.91-4.56 1.36-6.94 1.31-5.44.25-10.57-2.51-13.36-7.19s-2.79-10.5 0-15.17 7.93-7.43 13.36-7.19v.09zm13.7.49h17.19v4.5h-12.48v7.33h8.79v4.5h-8.79v7.73h12.48v4.5h-17.19v-28.57zm28.72 10.31v18.26h-4.63v-29.06l19.5 18.74v-18.26h4.72v29.06l-19.6-18.74zm33.75-5.81h-8.31v-4.5h21.3v4.5h-8.31v24.07h-4.69v-24.07zm18.83-4.5h4.72v28.57h-4.72zm17.68 22.12-3.32 6.45h-4.78l14.3-29.06 14.36 29.06h-4.9l-3.04-6.45h-12.63zm6.08-12.78-4.14 8.55h8.34s-4.2-8.55-4.2-8.55zm19.36-9.34h4.72v24.07h13.05v4.5h-17.77zm46.95-.49c2.39-.05 4.76.4 6.97 1.31v4.81c-2.11-1.05-4.43-1.58-6.79-1.55-3.78-.21-7.36 1.69-9.32 4.94s-1.95 7.3 0 10.54 5.54 5.14 9.32 4.94c2.35.03 4.68-.51 6.79-1.55v4.72c-2.21.91-4.58 1.36-6.97 1.31-5.44.25-10.57-2.51-13.36-7.19s-2.79-10.5 0-15.17 7.93-7.43 13.36-7.19v.09zm25.98 29.55c-5.99.01-11.39-3.59-13.69-9.11s-1.03-11.9 3.2-16.13 10.6-5.5 16.13-3.2 9.13 7.7 9.11 13.69c.02 3.92-1.53 7.68-4.3 10.45s-6.53 4.32-10.45 4.3zm0-4.57c4.16.09 7.95-2.35 9.6-6.17s.82-8.25-2.09-11.22-7.33-3.87-11.18-2.29-6.35 5.33-6.34 9.49c-.09 2.71.92 5.34 2.81 7.29s4.49 3.04 7.2 3.03v-.12zm21.52-24.98 14.09 15.21 14.03-15.21v29.06h-4.72v-17.59l-9.31 10.22-9.49-10.22v17.59h-4.72zm56.32 9.22c0 2.45-1.04 4.78-2.84 6.44s-4.21 2.49-6.65 2.29h-5.42v11.11h-4.72v-28.57h10.13c2.44-.19 4.85.64 6.65 2.29s2.83 3.99 2.84 6.44zm-4.63 0c0-1.24-.55-2.43-1.48-3.25-.94-.82-2.18-1.2-3.41-1.04h-5.39v8.61h5.39c1.25.18 2.51-.2 3.47-1.03s1.5-2.03 1.49-3.29h-.06zm13.45 13.39-3.04 6.45h-4.93l14.36-29.06 14.36 29.06h-4.93l-3.04-6.45s-12.78 0-12.78 0zm6.09-12.78-4.14 8.55h8.31zm24.07.97v18.26h-4.72v-29.06l19.5 18.74v-18.26h4.72v29.06zm35.81 6.18-10.89-16.49h5.54l7.64 11.84 7.7-11.84h5.54l-10.86 16.55v12.17h-4.72l.06-12.23z" fill="#1d1d1b"/></svg>