<svg width="523" height="220" viewBox="0 0 523 220" fill="none" xmlns="http://www.w3.org/2000/svg">
<path d="M278.39 218.05H348.89L343.26 200.74H302.18C311.73 184.22 344.51 180.32 344.51 152.72C344.51 135.44 332.34 123.75 312.96 123.75C299.3 123.75 284.84 129.47 278 148.85L295.68 155.15C298.72 145.66 304.81 140.42 312.99 140.42C316.18 140.16 319.32 141.31 321.59 143.56C323.86 145.81 325.03 148.94 324.8 152.13C324.8 173.43 278.4 177.69 278.4 211.74V218.04L278.39 218.05ZM414 123.72C385.88 123.72 365.13 144.53 365.13 172.16C365.13 199.79 385.88 219.75 414 219.75C442.12 219.75 462.9 199.3 462.9 172.16C462.9 145.02 442.12 123.72 414 123.72ZM414 201.59C397.99 201.59 385.88 188.63 385.88 172.17C385.88 154.89 397.56 141.89 414 141.89C430.44 141.89 442.12 154.88 442.12 172.17C442.12 189.46 430.01 201.59 414 201.59ZM200.82 218.02H221.6L261.4 125.46H241.5L200.82 218.02ZM136.23 123.72C108.11 123.72 87.33 144.53 87.33 172.16C87.33 199.79 108.11 219.75 136.23 219.75C164.35 219.75 185.1 199.3 185.1 172.16C185.1 145.02 164.32 123.72 136.23 123.72ZM136.23 201.59C120.22 201.59 108.11 188.63 108.11 172.17C108.11 154.89 119.79 141.89 136.23 141.89C152.67 141.89 164.32 154.88 164.32 172.17C164.32 189.46 152.15 201.59 136.23 201.59ZM0.4 218.02H70.87L65.27 200.74H24.34C33.74 184.1 66.51 180.32 66.51 152.72C66.51 135.41 54.34 123.72 34.93 123.72C21.3 123.72 6.81 129.32 0 148.85L17.68 155.15C20.72 145.66 26.63 140.42 34.96 140.42C38.15 140.15 41.29 141.29 43.56 143.54C45.83 145.79 47.02 148.91 46.79 152.1C46.79 173.4 0.39 177.69 0.39 211.71V218.01L0.4 218.02ZM13.36 96.03C20.17 96.03 25.68 90.51 25.68 83.71C25.68 76.91 20.16 71.39 13.36 71.39C6.56 71.39 1.04 76.91 1.04 83.71C1.04 90.51 6.56 96.03 13.36 96.03ZM84.29 94.3H104.19V1.73H86.91L55.33 41.1L23.73 1.73H1.25L55.32 69.65L84.29 33.32V94.3ZM173.84 0C145.72 0 124.97 20.75 124.97 48.44C124.97 76.13 145.72 96.03 173.84 96.03C201.96 96.03 222.74 75.7 222.74 48.44C222.74 21.18 201.98 0 173.84 0ZM173.84 77.87C157.83 77.87 145.72 64.91 145.72 48.45C145.72 31.17 157.4 18.02 173.84 18.02C190.28 18.02 201.99 31.01 201.99 48.45C202.27 56.11 199.44 63.57 194.13 69.11C188.83 74.65 181.51 77.81 173.84 77.87ZM243.48 94.3H263.38V35.91L308.38 94.3H326.12V1.73H306.22V60.12L261.22 1.73H243.48V94.29V94.3ZM353.63 94.3H421.12L415.49 77.02H373.53V56.24H403.38V38.93H373.53V19.03H415.49L421.12 1.75H353.63V94.31V94.3ZM467.5 94.3H487.4V60.13L522.45 1.73H500.82L477.45 41.96L454.11 1.73H432.48L467.5 60.12V94.29V94.3Z" fill="white"/>
</svg>
