<svg xmlns="http://www.w3.org/2000/svg" viewBox="0 0 56.69 56.69"><defs><style>.cls-1{fill:#e0e6f7;}</style></defs><g id="Layer_2" data-name="Layer 2"><g id="Layer_1-2" data-name="Layer 1"><path class="cls-1" d="M16.28,19.32l-3-3.91-.76.91v3H10.47V9.54h2.09v4.37L16,9.54h2.56L14.7,14.13l4.15,5.19Z"></path><path class="cls-1" d="M37.15,14.43a5.11,5.11,0,0,1,10.22,0,5.11,5.11,0,0,1-10.22,0Zm8.08,0a3,3,0,1,0-5.94,0,3,3,0,1,0,5.94,0Z"></path><path class="cls-1" d="M16,47.15l-1.92-3.48H12.56v3.48H10.47V37.37h4.58a3,3,0,0,1,3.28,3.15,2.79,2.79,0,0,1-2.14,2.9l2.2,3.73Zm.21-6.63a1.33,1.33,0,0,0-1.47-1.32H12.56v2.64h2.18A1.33,1.33,0,0,0,16.21,40.52Z"></path><path class="cls-1" d="M38.8,47.15V37.37h6.92V39.2H40.88v2.07h4.74V43.1H40.88v2.22h4.84v1.83Z"></path><rect class="cls-1" x="32.51" y="27.82" width="18.99" height="1.04"></rect><rect class="cls-1" x="5.19" y="27.82" width="18.99" height="1.04"></rect><rect class="cls-1" x="27.83" y="5.19" width="1.04" height="18.99"></rect><rect class="cls-1" x="27.83" y="32.51" width="1.04" height="18.99"></rect><path class="cls-1" d="M55.65,1V55.65H1V1H55.65m1-1H0V56.69H56.69V0Z"></path></g></g></svg>